#define matplotlib_width 32
#define matplotlib_height 32
static unsigned char matplotlib_bits[] = {
   0x00, 0x00, 0x00, 0x00, 0x00, 0x00, 0x00, 0x00, 0x00, 0x10, 0x00, 0x00,
   0x00, 0x1e, 0x00, 0x00, 0x00, 0x1f, 0x00, 0x00, 0x00, 0x1f, 0x00, 0x00,
   0x00, 0x3e, 0x08, 0x00, 0x00, 0x3e, 0x18, 0x00, 0x00, 0x3c, 0x18, 0x00,
   0x00, 0x38, 0x0c, 0x00, 0x00, 0x70, 0x04, 0x00, 0x00, 0x70, 0x04, 0x00,
   0x00, 0x60, 0x02, 0x00, 0xf0, 0xc1, 0x02, 0x00, 0xf0, 0x8f, 0x00, 0x00,
   0xf0, 0x7f, 0x01, 0x00, 0xf0, 0x7f, 0x01, 0x00, 0xf0, 0x0f, 0x02, 0x00,
   0xf0, 0x00, 0x05, 0x00, 0x00, 0x00, 0x0d, 0x00, 0x00, 0x80, 0x38, 0x00,
   0x00, 0x80, 0x71, 0x00, 0x00, 0x80, 0xe1, 0x00, 0x00, 0x80, 0xe1, 0x01,
   0x00, 0x80, 0xc2, 0x03, 0x00, 0x00, 0x80, 0x07, 0x00, 0x00, 0x80, 0x03,
   0x00, 0x00, 0x00, 0x00, 0x00, 0x00, 0x00, 0x00, 0x00, 0x00, 0x00, 0x00,
   0x00, 0x00, 0x00, 0x00, 0x00, 0x00, 0x00, 0x00 };
